# xmcd CD database file
#
# Track frame offsets:
#	182
#	19540
#	38307
#	59642
#	76095
#	94207
#	110595
#	126390
#	148440
#	166660
#
# Disc length: 2433 seconds
#
# Revision: 2
# Processed by: cddbd v1.5.1PL0 Copyright (c) Steve Scherf et al.
# Submitted via: CDex 1.51
#
DISCID=7f097f0a
DTITLE=Chris Rea - Water Sign
DYEAR=1983
DGENRE=Rock
TTITLE0=Nothing's Happening By The Sea
TTITLE1=Deep Water
TTITLE2=Candles
TTITLE3=Love's Strange Ways
TTITLE4=Texas
TTITLE5=Let It Loose
TTITLE6=I Can Hear Your Heartbeat
TTITLE7=Midnight Blue
TTITLE8=Hey You
TTITLE9=Out Of The Darkness
EXTD=YEAR: 1983
EXTT0=
EXTT1=
EXTT2=
EXTT3=
EXTT4=
EXTT5=
EXTT6=
EXTT7=
EXTT8=
EXTT9=
PLAYORDER=
